HIERARCHY
ROOT pelvis
{
  OFFSET 0 100 0
  CHANNELS 6 Xposition Yposition Zposition Zrotation Xrotation Yrotation
  JOINT pelvis_right_femur
  {
    OFFSET -10.78128 -3.44521 -0.5502486
    CHANNELS 3 Zrotation Xrotation Yrotation
    JOINT right_femur_tibia
    {
      OFFSET -0.8047443 -44.0398 -0.1307829
      CHANNELS 3 Zrotation Xrotation Yrotation
      JOINT right_tibia_foot
      {
        OFFSET 3.006224 -47.83518 -5
        CHANNELS 3 Zrotation Xrotation Yrotation
        End Site
        {
          OFFSET 0 -5 15
        }
      }
    }
  }
  JOINT pelvis_left_femur
  {
    OFFSET 10.78128 -3.44521 -0.5502486
    CHANNELS 3 Zrotation Xrotation Yrotation
    JOINT left_femur_tibia
    {
      OFFSET 0.8047443 -44.0398 -0.1307829
      CHANNELS 3 Zrotation Xrotation Yrotation
      JOINT left_tibia_foot
      {
        OFFSET -4.370144 -48.10324 -4.275266
        CHANNELS 3 Zrotation Xrotation Yrotation
        End Site
        {
          OFFSET 0 -5 15
        }
      }
    }
  }
  JOINT pelvis_spine1
  {
    OFFSET 0 6.468898 -3.129235
    CHANNELS 3 Zrotation Xrotation Yrotation
    JOINT spine1
    {
      OFFSET 0 23.15396 4.99043
      CHANNELS 3 Zrotation Xrotation Yrotation
      JOINT spine2
      {
        OFFSET 0 20.79997 -5.064912
        CHANNELS 3 Zrotation Xrotation Yrotation
        JOINT neck
        {
          OFFSET 0 14.38658 9.616178
          CHANNELS 3 Zrotation Xrotation Yrotation
          End Site
          {
            OFFSET 0 20 0
          }
        }
      }
      JOINT right_manubrium
      {
        OFFSET -5.722621 16.35077 3.967754
        CHANNELS 3 Zrotation Xrotation Yrotation
        JOINT right_clavicle
        {
          OFFSET -13.16364 1.694482 -4.693211
          CHANNELS 3 Zrotation Xrotation Yrotation
          JOINT right_humerus
          {
            OFFSET -28.5034 -0.3100689 -2.792744
            CHANNELS 3 Zrotation Xrotation Yrotation
            JOINT right_radius
            {
              OFFSET -25.15693 0.02248979 -1.271978
              CHANNELS 3 Zrotation Xrotation Yrotation
              End Site
              {
                OFFSET -15 0 0
              }
            }
          }
        }
      }
      JOINT left_manubrium
      {
        OFFSET 5.722621 16.35077 3.967754
        CHANNELS 3 Zrotation Xrotation Yrotation
        JOINT left_clavicle
        {
          OFFSET 13.16364 1.694482 -4.693211
          CHANNELS 3 Zrotation Xrotation Yrotation
          JOINT left_humerus
          {
            OFFSET 29.39168 -1.063119 -2.237045
            CHANNELS 3 Zrotation Xrotation Yrotation
            JOINT left_radius
            {
              OFFSET 24.59957 -0.9528479 0.9047498
              CHANNELS 3 Zrotation Xrotation Yrotation
              End Site
              {
                OFFSET 15 -0 -0
              }
            }
          }
        }
      }
    }
  }
}
MOTION
Frames: 19
Frame Time: 0.0416666666667
-567.4557 113.9239 -348.1031 15.26275 -2.044005 79.10438 6.991082 9.666027 2.683952 -0 15.84303 -0 -10.01116 -1.700445 -7.062258 1.444892 -4.720234 1.359096 -0 18.06428 -0 6.446335 -2.383814 12.993 2.357732 -6.014131 9.030232 0.04335478 19.64506 -8.312684 1.731358 19.08715 -2.480465 -2.006446 -15.63678 0.2439631 -11.93955 -36.6347 10.63053 102.7311 -3.538604 -16.32253 -0 0 27.96783 -22.10224 9.383964 13.90656 -1.383922 -26.1881 -13.36742 -89.74415 13.419 37.21756 0 0 -27.61079 -3.41301 7.074123 19.53325
-560.2647 113.9031 -347.3833 15.24036 -2.208446 78.50087 6.991082 9.666027 2.683952 -0 15.84303 -0 -10.01116 -1.700445 -7.062258 1.444892 -4.720234 1.359096 -0 18.06428 -0 6.446335 -2.383814 12.993 2.357732 -6.014131 9.030232 0.04335478 19.64506 -8.312684 1.731358 19.08715 -2.480465 -2.006446 -15.63678 0.2439631 -11.93955 -36.6347 10.63053 102.7311 -3.538604 -16.32253 -0 0 27.96783 -22.10224 9.383964 13.90656 -1.383922 -26.1881 -13.36742 -89.74415 13.419 37.21756 0 0 -27.61079 -3.41301 7.074123 19.53325
-553.0821 113.8822 -346.585 15.21623 -2.372643 77.89722 6.991082 9.666027 2.683952 -0 15.84303 -0 -10.01116 -1.700445 -7.062258 1.444892 -4.720234 1.359096 -0 18.06428 -0 6.446335 -2.383814 12.993 2.357732 -6.014131 9.030232 0.04335478 19.64506 -8.312684 1.731358 19.08715 -2.480465 -2.006446 -15.63678 0.2439631 -11.93955 -36.6347 10.63053 102.7311 -3.538604 -16.32253 -0 0 27.96783 -22.10224 9.383964 13.90656 -1.383922 -26.1881 -13.36742 -89.74415 13.419 37.21756 0 0 -27.61079 -3.41301 7.074123 19.53325
-545.9085 113.8613 -345.7084 15.19037 -2.536577 77.29343 6.991082 9.666027 2.683952 -0 15.84303 -0 -10.01116 -1.700445 -7.062258 1.444892 -4.720234 1.359096 -0 18.06428 -0 6.446335 -2.383814 12.993 2.357732 -6.014131 9.030232 0.04335478 19.64506 -8.312684 1.731358 19.08715 -2.480465 -2.006446 -15.63678 0.2439631 -11.93955 -36.6347 10.63053 102.7311 -3.538604 -16.32253 -0 0 27.96783 -22.10224 9.383964 13.90656 -1.383922 -26.1881 -13.36742 -89.74415 13.419 37.21756 0 0 -27.61079 -3.41301 7.074123 19.53325
-538.745 113.8405 -344.7536 15.16278 -2.700229 76.68949 6.991082 9.666027 2.683952 -0 15.84303 -0 -10.01116 -1.700445 -7.062258 1.444892 -4.720234 1.359096 -0 18.06428 -0 6.446335 -2.383814 12.993 2.357732 -6.014131 9.030232 0.04335478 19.64506 -8.312684 1.731358 19.08715 -2.480465 -2.006446 -15.63678 0.2439631 -11.93955 -36.6347 10.63053 102.7311 -3.538604 -16.32253 -0 0 27.96783 -22.10224 9.383964 13.90656 -1.383922 -26.1881 -13.36742 -89.74415 13.419 37.21756 0 0 -27.61079 -3.41301 7.074123 19.53325
-531.5923 113.8196 -343.7207 15.13346 -2.863582 76.08539 6.991082 9.666027 2.683952 -0 15.84303 -0 -10.01116 -1.700445 -7.062258 1.444892 -4.720234 1.359096 -0 18.06428 -0 6.446335 -2.383814 12.993 2.357732 -6.014131 9.030232 0.04335478 19.64506 -8.312684 1.731358 19.08715 -2.480465 -2.006446 -15.63678 0.2439631 -11.93955 -36.6347 10.63053 102.7311 -3.538604 -16.32253 -0 0 27.96783 -22.10224 9.383964 13.90656 -1.383922 -26.1881 -13.36742 -89.74415 13.419 37.21756 0 0 -27.61079 -3.41301 7.074123 19.53325
-524.4513 113.7987 -342.6099 15.10242 -3.026617 75.48112 6.991082 9.666027 2.683952 -0 15.84303 -0 -10.01116 -1.700445 -7.062258 1.444892 -4.720234 1.359096 -0 18.06428 -0 6.446335 -2.383814 12.993 2.357732 -6.014131 9.030232 0.04335478 19.64506 -8.312684 1.731358 19.08715 -2.480465 -2.006446 -15.63678 0.2439631 -11.93955 -36.6347 10.63053 102.7311 -3.538604 -16.32253 -0 0 27.96783 -22.10224 9.383964 13.90656 -1.383922 -26.1881 -13.36742 -89.74415 13.419 37.21756 0 0 -27.61079 -3.41301 7.074123 19.53325
-517.3228 113.7779 -341.4212 15.06964 -3.189315 74.87666 6.991082 9.666027 2.683952 -0 15.84303 -0 -10.01116 -1.700445 -7.062258 1.444892 -4.720234 1.359096 -0 18.06428 -0 6.446335 -2.383814 12.993 2.357732 -6.014131 9.030232 0.04335478 19.64506 -8.312684 1.731358 19.08715 -2.480465 -2.006446 -15.63678 0.2439631 -11.93955 -36.6347 10.63053 102.7311 -3.538604 -16.32253 -0 0 27.96783 -22.10224 9.383964 13.90656 -1.383922 -26.1881 -13.36742 -89.74415 13.419 37.21756 0 0 -27.61079 -3.41301 7.074123 19.53325
-510.2077 113.757 -340.1548 15.03515 -3.35166 74.27201 6.991082 9.666027 2.683952 -0 15.84303 -0 -10.01116 -1.700445 -7.062258 1.444892 -4.720234 1.359096 -0 18.06428 -0 6.446335 -2.383814 12.993 2.357732 -6.014131 9.030232 0.04335478 19.64506 -8.312684 1.731358 19.08715 -2.480465 -2.006446 -15.63678 0.2439631 -11.93955 -36.6347 10.63053 102.7311 -3.538604 -16.32253 -0 0 27.96783 -22.10224 9.383964 13.90656 -1.383922 -26.1881 -13.36742 -89.74415 13.419 37.21756 0 0 -27.61079 -3.41301 7.074123 19.53325
-503.1069 113.7361 -338.8108 14.99893 -3.513632 73.66716 6.991082 9.666027 2.683952 -0 15.84303 -0 -10.01116 -1.700445 -7.062258 1.444892 -4.720234 1.359096 -0 18.06428 -0 6.446335 -2.383814 12.993 2.357732 -6.014131 9.030232 0.04335478 19.64506 -8.312684 1.731358 19.08715 -2.480465 -2.006446 -15.63678 0.2439631 -11.93955 -36.6347 10.63053 102.7311 -3.538604 -16.32253 -0 0 27.96783 -22.10224 9.383964 13.90656 -1.383922 -26.1881 -13.36742 -89.74415 13.419 37.21756 0 0 -27.61079 -3.41301 7.074123 19.53325
-496.0212 113.7153 -337.3894 14.961 -3.675213 73.06211 6.991082 9.666027 2.683952 -0 15.84303 -0 -10.01116 -1.700445 -7.062258 1.444892 -4.720234 1.359096 -0 18.06428 -0 6.446335 -2.383814 12.993 2.357732 -6.014131 9.030232 0.04335478 19.64506 -8.312684 1.731358 19.08715 -2.480465 -2.006446 -15.63678 0.2439631 -11.93955 -36.6347 10.63053 102.7311 -3.538604 -16.32253 -0 0 27.96783 -22.10224 9.383964 13.90656 -1.383922 -26.1881 -13.36742 -89.74415 13.419 37.21756 0 0 -27.61079 -3.41301 7.074123 19.53325
-488.9513 113.6944 -335.8909 14.92135 -3.836385 72.45683 6.991082 9.666027 2.683952 -0 15.84303 -0 -10.01116 -1.700445 -7.062258 1.444892 -4.720234 1.359096 -0 18.06428 -0 6.446335 -2.383814 12.993 2.357732 -6.014131 9.030232 0.04335478 19.64506 -8.312684 1.731358 19.08715 -2.480465 -2.006446 -15.63678 0.2439631 -11.93955 -36.6347 10.63053 102.7311 -3.538604 -16.32253 -0 0 27.96783 -22.10224 9.383964 13.90656 -1.383922 -26.1881 -13.36742 -89.74415 13.419 37.21756 0 0 -27.61079 -3.41301 7.074123 19.53325
-481.8983 113.6735 -334.3153 14.87999 -3.99713 71.85132 6.991082 9.666027 2.683952 -0 15.84303 -0 -10.01116 -1.700445 -7.062258 1.444892 -4.720234 1.359096 -0 18.06428 -0 6.446335 -2.383814 12.993 2.357732 -6.014131 9.030232 0.04335478 19.64506 -8.312684 1.731358 19.08715 -2.480465 -2.006446 -15.63678 0.2439631 -11.93955 -36.6347 10.63053 102.7311 -3.538604 -16.32253 -0 0 27.96783 -22.10224 9.383964 13.90656 -1.383922 -26.1881 -13.36742 -89.74415 13.419 37.21756 0 0 -27.61079 -3.41301 7.074123 19.53325
-474.8629 113.6527 -332.6628 14.83692 -4.15743 71.24558 6.991082 9.666027 2.683952 -0 15.84303 -0 -10.01116 -1.700445 -7.062258 1.444892 -4.720234 1.359096 -0 18.06428 -0 6.446335 -2.383814 12.993 2.357732 -6.014131 9.030232 0.04335478 19.64506 -8.312684 1.731358 19.08715 -2.480465 -2.006446 -15.63678 0.2439631 -11.93955 -36.6347 10.63053 102.7311 -3.538604 -16.32253 -0 0 27.96783 -22.10224 9.383964 13.90656 -1.383922 -26.1881 -13.36742 -89.74415 13.419 37.21756 0 0 -27.61079 -3.41301 7.074123 19.53325
-467.8459 113.6318 -330.9337 14.79214 -4.317267 70.63959 6.991082 9.666027 2.683952 -0 15.84303 -0 -10.01116 -1.700445 -7.062258 1.444892 -4.720234 1.359096 -0 18.06428 -0 6.446335 -2.383814 12.993 2.357732 -6.014131 9.030232 0.04335478 19.64506 -8.312684 1.731358 19.08715 -2.480465 -2.006446 -15.63678 0.2439631 -11.93955 -36.6347 10.63053 102.7311 -3.538604 -16.32253 -0 0 27.96783 -22.10224 9.383964 13.90656 -1.383922 -26.1881 -13.36742 -89.74415 13.419 37.21756 0 0 -27.61079 -3.41301 7.074123 19.53325
-460.8482 113.6109 -329.1281 14.74566 -4.476623 70.03335 6.991082 9.666027 2.683952 -0 15.84303 -0 -10.01116 -1.700445 -7.062258 1.444892 -4.720234 1.359096 -0 18.06428 -0 6.446335 -2.383814 12.993 2.357732 -6.014131 9.030232 0.04335478 19.64506 -8.312684 1.731358 19.08715 -2.480465 -2.006446 -15.63678 0.2439631 -11.93955 -36.6347 10.63053 102.7311 -3.538604 -16.32253 -0 0 27.96783 -22.10224 9.383964 13.90656 -1.383922 -26.1881 -13.36742 -89.74415 13.419 37.21756 0 0 -27.61079 -3.41301 7.074123 19.53325
-453.8706 113.5901 -327.2463 14.69749 -4.635479 69.42684 6.991082 9.666027 2.683952 -0 15.84303 -0 -10.01116 -1.700445 -7.062258 1.444892 -4.720234 1.359096 -0 18.06428 -0 6.446335 -2.383814 12.993 2.357732 -6.014131 9.030232 0.04335478 19.64506 -8.312684 1.731358 19.08715 -2.480465 -2.006446 -15.63678 0.2439631 -11.93955 -36.6347 10.63053 102.7311 -3.538604 -16.32253 -0 0 27.96783 -22.10224 9.383964 13.90656 -1.383922 -26.1881 -13.36742 -89.74415 13.419 37.21756 0 0 -27.61079 -3.41301 7.074123 19.53325
-446.9139 113.5692 -325.2884 14.64761 -4.793817 68.82007 6.991082 9.666027 2.683952 -0 15.84303 -0 -10.01116 -1.700445 -7.062258 1.444892 -4.720234 1.359096 -0 18.06428 -0 6.446335 -2.383814 12.993 2.357732 -6.014131 9.030232 0.04335478 19.64506 -8.312684 1.731358 19.08715 -2.480465 -2.006446 -15.63678 0.2439631 -11.93955 -36.6347 10.63053 102.7311 -3.538604 -16.32253 -0 0 27.96783 -22.10224 9.383964 13.90656 -1.383922 -26.1881 -13.36742 -89.74415 13.419 37.21756 0 0 -27.61079 -3.41301 7.074123 19.53325
-439.979 113.5483 -323.2548 14.59605 -4.951621 68.21301 6.991082 9.666027 2.683952 -0 15.84303 -0 -10.01116 -1.700445 -7.062258 1.444892 -4.720234 1.359096 -0 18.06428 -0 6.446335 -2.383814 12.993 2.357732 -6.014131 9.030232 0.04335478 19.64506 -8.312684 1.731358 19.08715 -2.480465 -2.006446 -15.63678 0.2439631 -11.93955 -36.6347 10.63053 102.7311 -3.538604 -16.32253 -0 0 27.96783 -22.10224 9.383964 13.90656 -1.383922 -26.1881 -13.36742 -89.74415 13.419 37.21756 0 0 -27.61079 -3.41301 7.074123 19.53325
